<svg preserveAspectRatio="none" width="100%" height="100%" overflow="visible" style="display: block;" viewBox="0 0 40.1675 28.622" fill="none" xmlns="http://www.w3.org/2000/svg">
<g id="Group 1547766067">
<path id="Vector" d="M40.1675 17.5126C40.1675 13.6802 37.0627 10.527 33.1818 10.527C32.4541 10.527 31.7265 10.624 31.0473 10.8666C31.0473 10.7695 31.0473 10.624 31.0473 10.527C31.0473 4.70561 26.3417 0 20.5203 0C15.7662 0 11.7398 3.15324 10.43 7.51927C9.84782 7.37374 9.21717 7.32523 8.58652 7.32523C3.8324 7.32523 0 11.1576 0 15.9117C0 20.4233 3.44431 24.0617 7.81034 24.4498C7.95588 24.4498 8.10141 24.4983 8.29546 24.4983H33.5699C33.861 24.4983 34.152 24.4498 34.4431 24.4013C37.7419 23.7706 40.1675 20.9084 40.1675 17.5126Z" fill="var(--fill-0, #2F2823)"/>
<rect id="Rectangle 26588" x="10.6725" y="8.24723" width="18.9195" height="20.3748" fill="var(--fill-0, #2F2823)"/>
<rect id="Rectangle 26587" x="12.1278" y="9.70241" width="8.73206" height="2.91069" rx="0.485114" fill="var(--fill-0, white)"/>
<path id="Rectangle 26592" d="M21.8301 10.0663C21.8301 9.89317 22.0062 9.77578 22.166 9.84235L27.5022 12.0658C27.5926 12.1035 27.6515 12.1918 27.6515 12.2897V14.4461C27.6515 14.6155 27.4823 14.7327 27.3238 14.6732L21.9875 12.6721C21.8928 12.6366 21.8301 12.5461 21.8301 12.445V10.0663Z" fill="var(--fill-0, white)"/>
<path id="Rectangle 26593" d="M21.8301 14.4326C21.8301 14.2595 22.0062 14.1421 22.166 14.2087L27.5022 16.4321C27.5926 16.4698 27.6515 16.5581 27.6515 16.656V18.8124C27.6515 18.9818 27.4823 19.099 27.3238 19.0395L21.9875 17.0384C21.8928 17.0029 21.8301 16.9124 21.8301 16.8113V14.4326Z" fill="var(--fill-0, white)"/>
<path id="Rectangle 26594" d="M21.8301 18.7981C21.8301 18.625 22.0062 18.5076 22.166 18.5742L27.5022 20.7977C27.5926 20.8353 27.6515 20.9236 27.6515 21.0216V23.178C27.6515 23.3473 27.4823 23.4645 27.3238 23.4051L21.9875 21.404C21.8928 21.3685 21.8301 21.278 21.8301 21.1769V18.7981Z" fill="var(--fill-0, white)"/>
<path id="Rectangle 26595" d="M21.8301 23.1644C21.8301 22.9913 22.0062 22.8739 22.166 22.9405L27.5022 25.164C27.5926 25.2016 27.6515 25.2899 27.6515 25.3879V26.3952C27.6515 26.545 27.5169 26.6591 27.3691 26.6344L22.0328 25.745C21.9158 25.7256 21.8301 25.6244 21.8301 25.5058V23.1644Z" fill="var(--fill-0, white)"/>
<rect id="Rectangle 26589" x="12.1278" y="14.0687" width="8.73206" height="2.91069" rx="0.485114" fill="var(--fill-0, white)"/>
<rect id="Rectangle 26590" x="12.1278" y="18.4343" width="8.73206" height="2.91069" rx="0.485114" fill="var(--fill-0, white)"/>
<rect id="Rectangle 26591" x="12.1278" y="22.8006" width="8.73206" height="2.91069" rx="0.485114" fill="var(--fill-0, white)"/>
</g>
</svg>
