<svg width="251" height="251" viewBox="0 0 251 251" fill="none" xmlns="http://www.w3.org/2000/svg">
<path d="M251 145.527C251 121.558 231.599 101.838 207.348 101.838C202.8 101.838 198.254 102.444 194.009 103.962C194.009 103.354 194.009 102.444 194.009 101.838C194.009 65.4297 164.605 36 128.228 36C98.5204 36 73.3601 55.7209 65.1753 83.0268C61.5374 82.1166 57.5966 81.8133 53.6557 81.8133C23.948 81.8133 0 105.782 0 135.515C0 163.731 21.5229 186.486 48.8055 188.913C49.715 188.913 50.6244 189.217 51.8369 189.217H209.773C211.592 189.217 213.41 188.913 215.229 188.61C235.843 184.665 251 166.765 251 145.527Z" fill="#2F2823"/>
<path d="M184.918 87.5725H66.6929V215H184.918V87.5725Z" fill="#2F2823"/>
<path d="M127.319 96.685H78.8168C77.1426 96.685 75.7854 98.0434 75.7854 99.719V111.855C75.7854 113.531 77.1426 114.889 78.8168 114.889H127.319C128.993 114.889 130.351 113.531 130.351 111.855V99.719C130.351 98.0434 128.993 96.685 127.319 96.685Z" fill="white"/>
<path d="M136.413 98.9611C136.413 97.8785 137.513 97.1443 138.512 97.5606L171.857 111.466C172.421 111.702 172.789 112.254 172.789 112.867V126.353C172.789 127.413 171.733 128.146 170.742 127.773L137.396 115.258C136.805 115.036 136.413 114.47 136.413 113.838V98.9611Z" fill="white"/>
<path d="M136.413 126.262C136.413 125.179 137.513 124.445 138.512 124.862L171.857 138.767C172.421 139.003 172.789 139.555 172.789 140.167V153.654C172.789 154.713 171.733 155.446 170.742 155.075L137.396 142.56C136.805 142.338 136.413 141.772 136.413 141.139V126.262Z" fill="white"/>
<path d="M136.413 153.563C136.413 152.48 137.513 151.746 138.512 152.163L171.857 166.069C172.421 166.304 172.789 166.856 172.789 167.469V180.956C172.789 182.014 171.733 182.748 170.742 182.376L137.396 169.861C136.805 169.639 136.413 169.073 136.413 168.44V153.563Z" fill="white"/>
<path d="M136.413 180.876C136.413 179.793 137.513 179.059 138.512 179.476L171.857 193.382C172.421 193.617 172.789 194.169 172.789 194.782V201.082C172.789 202.019 171.948 202.732 171.025 202.578L137.679 197.016C136.949 196.894 136.413 196.261 136.413 195.52V180.876Z" fill="white"/>
<path d="M127.319 123.986H78.8168C77.1426 123.986 75.7854 125.344 75.7854 127.02V139.156C75.7854 140.832 77.1426 142.19 78.8168 142.19H127.319C128.993 142.19 130.351 140.832 130.351 139.156V127.02C130.351 125.344 128.993 123.986 127.319 123.986Z" fill="white"/>
<path d="M127.319 151.287H78.8168C77.1426 151.287 75.7854 152.645 75.7854 154.321V166.457C75.7854 168.132 77.1426 169.491 78.8168 169.491H127.319C128.993 169.491 130.351 168.132 130.351 166.457V154.321C130.351 152.645 128.993 151.287 127.319 151.287Z" fill="white"/>
<path d="M127.319 178.6H78.8168C77.1426 178.6 75.7854 179.958 75.7854 181.634V193.77C75.7854 195.446 77.1426 196.804 78.8168 196.804H127.319C128.993 196.804 130.351 195.446 130.351 193.77V181.634C130.351 179.958 128.993 178.6 127.319 178.6Z" fill="white"/>
</svg>
