<svg xmlns="http://www.w3.org/2000/svg" width="18" height="18" viewBox="0 0 18 18" fill="none">
  <g clip-path="url(#clip0_76861_75413)">
    <path d="M0.000140625 1.422C0.000140625 0.934875 0.000140628 0.691453 0.0919688 0.504C0.179859 0.324563 0.324844 0.179578 0.504281 0.0916875C0.691594 0 0.935016 0 1.42214 0H16.5781C17.0651 0 17.3088 0 17.4961 0.0918281C17.6754 0.179719 17.8204 0.324703 17.9085 0.504141C18.0001 0.691453 18.0001 0.935016 18.0001 1.42214V16.5781C18.0001 17.0651 18.0001 17.3088 17.9085 17.4961C17.8204 17.6754 17.6754 17.8204 17.4961 17.9085C17.3088 18.0001 17.0651 18.0001 16.5781 18.0001H1.42214C0.935016 18.0001 0.691594 18.0001 0.504141 17.9085C0.324703 17.8204 0.179719 17.6754 0.0918281 17.4961C0 17.3088 0 17.0651 0 16.5781V1.422H0.000140625Z" fill="#0000FF"/>
  </g>
  <defs>
    <clipPath id="clip0_76861_75413">
      <rect width="18" height="18" fill="white"/>
    </clipPath>
  </defs>
</svg>