<svg
  width="20"
  height="20"
  viewBox="0 0 20 20"
  fill="none"
  xmlns="http://www.w3.org/2000/svg"
>
  <rect width="20" height="20" rx="4" fill="#162F29" />
  <path
    fill-rule="evenodd"
    clip-rule="evenodd"
    d="M17 10.0379C17 10.1091 16.9989 10.1801 16.9968 10.2509H16.9891L16.9891 10.2516H13.5921V10.0967H10.3144C10.316 10.0322 10.316 9.96777 10.3144 9.90334H13.5921V9.74911H13.5972V9.74837H16.9942C16.9981 9.84439 17 9.94089 17 10.0379ZM10.2574 9.33945L13.4642 8.94488L13.483 9.09872L16.8699 8.68199C16.8378 8.51658 16.7996 8.35239 16.7556 8.18974L13.422 8.59995L13.4408 8.75379L10.2186 9.15027C10.2332 9.21298 10.2462 9.27606 10.2574 9.33945ZM10.0901 8.71857L13.1557 7.95261L13.1931 8.10301L16.4454 7.29041C16.3789 7.13322 16.3067 6.97849 16.2289 6.82654L13.0718 7.61541L13.1092 7.76578L10.0187 8.53799C10.044 8.59756 10.0678 8.65777 10.0901 8.71857ZM9.81881 8.13748L12.6843 7.05547L12.7388 7.20052L15.7702 6.05585C15.6718 5.91218 15.5681 5.7722 15.4594 5.63618L12.562 6.73027L12.6165 6.87528L9.71649 7.97039C9.75206 8.02518 9.78618 8.08089 9.81881 8.13748ZM9.4423 7.60009L11.9729 6.28118L12.0443 6.41868L14.8431 4.95996C14.7142 4.83568 14.5807 4.71635 14.4427 4.60221L11.8129 5.97283L11.8843 6.11033L9.31065 7.45164C9.35583 7.49996 9.39973 7.54946 9.4423 7.60009ZM8.83165 7.02068L11.1226 5.5638L11.2054 5.69466L13.7342 4.08659C13.5751 3.98531 13.412 3.89048 13.2453 3.80232L10.9368 5.27038L11.0196 5.40128L8.66244 6.90026C8.71996 6.93883 8.77638 6.979 8.83165 7.02072M8.29101 6.68126L10.2113 5.1063L10.3092 5.22621L12.4724 3.45199C12.2876 3.38139 12.0999 3.3187 11.9097 3.2641L9.99162 4.83731L10.0896 4.9573L8.09937 6.58964C8.16412 6.61833 8.22802 6.64888 8.29101 6.68126ZM7.57408 6.40297L9.0911 4.89363L9.20008 5.00362L11.1262 3.08728C10.9156 3.05238 10.7036 3.02707 10.4907 3.01145L8.84678 4.647L8.95575 4.75699L7.3543 6.35032C7.42838 6.36569 7.50164 6.38324 7.57408 6.40297ZM6.73506 6.27539L7.94439 4.80987L8.0636 4.90864L9.63863 3C9.39954 3.0111 9.16357 3.03416 8.93128 3.0686L7.67716 4.58845L7.79633 4.68722L6.48654 6.27449C6.56938 6.27209 6.65228 6.2724 6.73509 6.27543M6.01078 6.31893L6.94221 4.87706L7.07206 4.96129L8.19837 3.21779C7.94258 3.28429 7.69078 3.36532 7.4442 3.46047L6.65114 4.68816L6.78094 4.77243L5.74871 6.37025C5.83543 6.35001 5.92284 6.33289 6.01078 6.31893ZM5.20486 6.5427L5.87535 5.28695L6.01172 5.36008L6.89926 3.69784C6.61572 3.83602 6.34182 3.99315 6.07942 4.16816L5.56962 5.12303L5.70599 5.19612L4.91699 6.67387C5.01105 6.62608 5.10707 6.58232 5.20486 6.5427ZM4.62717 6.83803L4.91187 6.0295L5.0577 6.0811L5.61124 4.50907C5.33032 4.73174 5.06674 4.97543 4.82275 5.23805L4.5848 5.91385L4.73067 5.96544L4.35806 7.02369C4.44499 6.95788 4.53478 6.89594 4.62717 6.83803ZM3.9163 7.41654L4.04193 6.82951L4.19319 6.86203L4.44663 5.67761C4.17885 6.01771 3.94295 6.38173 3.7419 6.76506L3.85408 6.78918L3.62331 7.76128C3.71395 7.64058 3.81179 7.52546 3.9163 7.41654ZM3.39395 8.10481V7.32715C3.20559 7.82452 3.07184 8.4427 3 9.04935C3.08703 8.7178 3.21959 8.39992 3.39391 8.10477M3.005 10.9687C3.0777 11.4788 3.20642 11.9793 3.38883 12.4611V11.8859C3.22031 11.5988 3.09121 11.2903 3.005 10.9687ZM3.64762 12.2701L3.849 13.2109L3.73682 13.235C3.93787 13.6183 4.17377 13.9823 4.44154 14.3224L4.18807 13.138L4.03681 13.1705L3.90954 12.5757C3.81684 12.4786 3.72939 12.3765 3.64762 12.2701ZM4.35075 12.9701L4.72559 14.0346L4.57979 14.0862L4.81771 14.762C5.06168 15.0246 5.32526 15.2683 5.60616 15.491L5.05266 13.919L4.90679 13.9706L4.62029 13.1569C4.52776 13.0986 4.43783 13.0362 4.35075 12.9701ZM4.90949 13.3215L5.70099 14.8039L5.56457 14.877L6.07438 15.8318C6.33679 16.0069 6.6107 16.164 6.89425 16.3022L6.00676 14.6399L5.87035 14.713L5.19798 13.4537C5.09999 13.4137 5.00371 13.3697 4.90949 13.3215ZM5.74222 13.6274L6.77594 15.2276L6.6461 15.3118L7.4392 16.5395C7.68577 16.6347 7.93757 16.7157 8.19337 16.7822L7.06706 15.0387L6.93721 15.1229L6.00461 13.6793C5.91655 13.6652 5.82903 13.6479 5.74222 13.6274ZM6.48072 13.7245L7.79137 15.3128L7.67215 15.4116L8.92632 16.9314C9.16079 16.9662 9.39688 16.9891 9.63366 17L8.05864 15.0913L7.93942 15.1901L6.72962 13.724C6.64668 13.7269 6.56367 13.7271 6.48072 13.7245ZM7.34953 13.65L8.95075 15.2431L8.84177 15.353L10.4857 16.9886C10.6986 16.973 10.9107 16.9477 11.1213 16.9128L9.19511 14.9964L9.08614 15.1064L7.56955 13.5975C7.49703 13.6172 7.42369 13.6347 7.34953 13.65ZM8.09554 13.4113L10.0846 15.0428L9.98665 15.1627L11.9047 16.7359C12.0949 16.6813 12.2826 16.6186 12.4675 16.5481L10.3043 14.7738L10.2063 14.8938L8.28741 13.3199C8.22434 13.3522 8.16035 13.3827 8.09554 13.4113ZM8.65947 13.101L11.0147 14.5988L10.9318 14.7297L13.2403 16.1977C13.407 16.1096 13.5701 16.0147 13.7292 15.9135L11.2005 14.3053L11.1176 14.4362L8.82887 12.9807C8.77353 13.0224 8.71704 13.0625 8.65947 13.101ZM9.30858 12.5499L11.8793 13.8897L11.8079 14.0272L14.4377 15.3978C14.5757 15.2837 14.7093 15.1644 14.8382 15.0401L12.0393 13.5813L11.9679 13.7189L9.44038 12.4015C9.39776 12.4521 9.35382 12.5016 9.30858 12.5499ZM9.71516 12.031L12.6115 13.1247L12.557 13.2698L15.4544 14.3638C15.5632 14.2278 15.6668 14.0878 15.7652 13.9442L12.7338 12.7995L12.6793 12.9445L9.8176 11.864C9.78493 11.9205 9.75077 11.9762 9.71516 12.031ZM10.018 11.4631L13.1042 12.2342L13.0668 12.3846L16.2239 13.1735C16.3017 13.0215 16.3739 12.8668 16.4404 12.7096L13.1881 11.897L13.1507 12.0474L10.0894 11.2825C10.0672 11.3435 10.0433 11.4037 10.018 11.4631ZM10.2184 10.8504L13.4358 11.2462L13.417 11.4001L16.7507 11.8103C16.7945 11.6484 16.8326 11.4843 16.865 11.318L13.4781 10.9013L13.4592 11.0551L10.2573 10.6611C10.2459 10.7245 10.233 10.7876 10.2184 10.8504Z"
    fill="white"
  />
</svg>
